<svg width="198" height="75" viewBox="0 0 198 75" fill="none" xmlns="http://www.w3.org/2000/svg">
<path d="M82.7354 29.3285C83.7898 29.6848 84.843 30.0427 85.8958 30.4013C86.4825 30.6004 87.0691 30.7995 87.6736 31.0047C89.2776 31.5798 90.7893 32.1995 92.3059 32.8765C107.611 39.6992 123.44 44.3515 142.13 42.1045C144.285 41.784 146.357 41.3306 148.442 40.8354C148.801 40.7532 149.161 40.671 149.531 40.5863C153.867 39.587 158.02 38.3691 162.119 36.9758C162.477 36.8546 162.835 36.7333 163.203 36.6084C165.699 35.7326 167.751 34.6503 170 33.5C170.551 33.6899 170.438 33.8063 171 34C169.567 34.8273 168.398 35.58 166.957 36.4005C166.55 36.6351 166.144 36.8697 165.725 37.1114C165.133 37.447 165.133 37.447 164.529 37.7894C164.167 37.9963 163.806 38.2032 163.433 38.4163C162.313 38.9409 161.443 39.1007 160.135 39.3012C160.173 41.7509 160.223 44.2004 160.281 46.6499C160.3 47.482 160.316 48.3142 160.328 49.1464C160.347 50.3472 160.376 51.5477 160.407 52.7484C160.413 53.3006 160.413 53.3006 160.418 53.8639C160.49 56.1748 160.876 58.2966 162.363 60.3972C164.913 62.068 167.902 62.35 171.272 62.6986C171.272 63.4581 171.272 64.2176 171.272 65C157.123 65 142.974 65 128.396 65C128.396 64.2406 128.396 63.4811 128.396 62.6986C128.765 62.6611 129.135 62.6235 129.516 62.5848C133.61 62.1397 133.61 62.1397 136.748 60.3972C138.616 57.4101 138.714 54.3497 138.802 51.1437C138.821 50.6671 138.84 50.1905 138.859 49.6994C138.905 48.5347 138.943 47.3702 138.976 46.2053C138.293 46.3294 137.61 46.4536 136.907 46.5814C133.596 47.0854 130.349 47.1037 126.969 47.0923C126.011 47.0903 126.011 47.0903 125.034 47.0883C117.977 47.0264 111.74 46.0967 105.009 44.6711C105.033 46.6503 105.072 48.6291 105.124 50.6081C105.14 51.2807 105.152 51.9533 105.16 52.6259C105.172 53.5955 105.198 54.5644 105.226 55.5338C105.227 55.8323 105.228 56.1309 105.228 56.4385C105.305 58.4316 105.901 59.5748 107.793 61.1644C109.398 61.9151 111.049 62.1226 112.944 62.363C113.44 62.4273 113.937 62.4916 114.449 62.5578C114.825 62.6043 115.201 62.6507 115.589 62.6986C115.589 63.4581 115.589 64.2176 115.589 65C101.439 65 87.2903 65 72.7123 65C72.7123 64.2406 72.7123 63.4811 72.7123 62.6986C73.1689 62.6334 73.6254 62.5681 74.0957 62.5009C74.6958 62.4079 75.2959 62.3149 75.9141 62.2192C76.5085 62.1302 77.1028 62.0412 77.7151 61.9495C79.5721 61.5054 80.3989 61.0607 81.6217 60.0137C82.2763 58.661 82.2763 57.4294 82.2929 56.0212C82.3011 55.5888 82.3011 55.5888 82.3096 55.1477C82.3271 54.1952 82.3409 53.2426 82.3547 52.2899C82.3662 51.6294 82.3779 50.9689 82.3898 50.3084C82.4205 48.5699 82.448 46.8314 82.4749 45.0929C82.5029 43.3189 82.5339 41.5449 82.5646 39.7709C82.6245 36.2901 82.681 32.8093 82.7354 29.3285Z" fill="#003366"/>
<path d="M177 30L175.834 30.342M175.834 30.342L179 29L174.846 31.1429L171.385 33.2857L170 34L169.295 34.4134L175.834 30.342Z" stroke="#003366"/>
<path d="M128.396 10.9174C142.545 10.9174 156.694 10.9174 171.272 10.9174C171.272 11.6768 171.272 12.4363 171.272 13.2187C170.862 13.2563 170.452 13.2939 170.03 13.3326C165.683 13.7205 165.683 13.7205 162.363 15.5201C160.873 18.073 160.436 20.5258 160.407 23.2544C160.397 23.6065 160.387 23.9587 160.377 24.3215C160.347 25.4311 160.328 26.5406 160.309 27.6504C160.291 28.409 160.272 29.1677 160.252 29.9263C160.205 31.7727 160.167 33.619 160.135 35.4655C156.048 36.842 152.152 38.0745 147.676 38.6779C147.057 38.7721 147.057 38.7721 146.425 38.8681C143.899 39.2335 141.569 39.324 138.976 39.3012C138.971 38.9221 138.971 38.9221 138.966 38.5355C138.93 35.897 138.883 33.2587 138.829 30.6204C138.811 29.6368 138.795 28.6531 138.783 27.6695C138.764 26.2526 138.735 24.836 138.704 23.4192C138.7 22.982 138.697 22.5447 138.693 22.0943C138.623 19.4611 138.539 16.7984 135.73 14.7935C134.284 14.2863 132.894 13.9933 131.319 13.7222C130.771 13.6258 130.222 13.5293 129.657 13.43C129.241 13.3603 128.825 13.2906 128.396 13.2187C128.396 12.4593 128.396 11.6998 128.396 10.9174Z" fill="#003366"/>
<path d="M72.7123 10.9174C86.8615 10.9174 101.011 10.9174 115.589 10.9174C115.589 11.6768 115.589 12.4363 115.589 13.2187C115.225 13.2563 114.862 13.2939 114.488 13.3326C111.423 13.6938 109.084 14.0707 106.679 15.5201C105.308 17.2525 105.374 18.9741 105.335 20.8975C105.324 21.2269 105.313 21.5562 105.302 21.8955C105.269 22.9427 105.243 23.99 105.218 25.0373C105.196 25.7493 105.175 26.4612 105.152 27.1732C105.099 28.9144 105.052 30.6556 105.009 32.397C102.728 31.7865 100.619 31.055 98.5007 30.2155C98.157 30.0798 97.8133 29.9441 97.4592 29.8043C94.9491 28.7997 92.5578 27.7188 90.2309 26.5207C88.8541 25.8373 88.8541 25.8373 87.177 25.328C85.3687 24.71 84.1011 24.2211 82.7354 23.1914C82.3342 21.8376 82.1796 20.6743 82.26 19.3027C82.3697 17.303 81.8388 16.2749 79.9512 14.753C78.4218 14.0493 76.8698 13.8084 75.0789 13.5544C74.6339 13.4901 74.1888 13.4258 73.7303 13.3596C73.3944 13.3131 73.0584 13.2666 72.7123 13.2187C72.7123 12.4593 72.7123 11.6998 72.7123 10.9174Z" fill="#003366"/>
<path d="M180.181 13.2188C180.365 13.5985 180.549 13.9782 180.738 14.3694C181.289 14.3694 181.841 14.3694 182.409 14.3694C182.776 15.2555 183.144 16.1415 183.522 17.0544C183.741 16.6826 183.959 16.3108 184.184 15.9277C185.193 14.753 185.193 14.753 186.48 14.4653C186.974 14.4337 187.468 14.402 187.977 14.3694C189.095 14.1225 190.21 13.8687 191.318 13.6023C191.594 14.7415 191.594 14.7415 191.875 15.9037C192.426 16.0303 192.977 16.1569 193.545 16.2873C193.43 16.5246 193.316 16.7619 193.197 17.0065C193.094 17.4099 193.094 17.4099 192.988 17.8215C193.356 18.0747 193.723 18.3278 194.102 18.5887C193.654 18.8814 193.206 19.1741 192.745 19.4757C191.224 20.4276 191.224 20.4276 190.761 21.6572C191.335 21.586 191.91 21.5148 192.501 21.4414C194.526 21.2839 196.026 21.3586 198 21.6572C197.667 22.5592 197.293 23.4545 196.886 24.3421C196.335 24.532 196.335 24.532 195.773 24.7257C195.773 25.1054 195.773 25.4852 195.773 25.8764C193.843 26.0663 193.843 26.0663 191.875 26.26C192.15 26.5606 192.426 26.8612 192.71 27.1709C193.545 28.1778 193.545 28.1778 193.545 28.9449C192.994 29.0715 192.443 29.1981 191.875 29.3285C191.507 29.5816 191.14 29.8348 190.761 30.0956C188.683 30.2425 188.102 30.1528 186.306 29.3285C185.755 29.8348 185.204 30.3411 184.636 30.8627C183.901 29.9767 183.166 29.0907 182.409 28.1778C182.041 28.1778 181.674 28.1778 181.295 28.1778C180.95 28.4863 180.606 28.7948 180.251 29.1127C179.053 30.1074 178.648 30.3458 176.84 30.4792C176.84 30.226 176.84 29.9729 176.84 29.712C177.392 29.4589 177.943 29.2057 178.511 28.9449C178.917 27.9619 178.917 27.9619 179.068 27.0271C177.598 26.9005 176.128 26.7739 174.613 26.6435C174.613 26.0106 174.613 25.3778 174.613 24.7257C173.694 24.7257 172.775 24.7257 171.829 24.7257C172.196 24.2194 172.564 23.7131 172.942 23.1914C172.391 23.0649 171.84 22.9383 171.272 22.8079C171.088 22.0484 170.904 21.289 170.715 20.5065C172.369 20.5065 174.023 20.5065 175.727 20.5065C175.175 19.3673 174.624 18.2281 174.056 17.0544C174.791 16.9278 175.526 16.8012 176.283 16.6708C176.467 16.038 176.651 15.4051 176.84 14.753C177.185 14.7135 177.529 14.6739 177.884 14.6331C179.271 14.4173 179.271 14.4173 180.181 13.2188Z" fill="#003366"/>
<path d="M180.738 28.1778C180.127 29.3259 179.804 29.653 178.163 30.1915C177.726 30.2864 177.29 30.3814 176.84 30.4792C176.84 30.226 176.84 29.9729 176.84 29.7121C179.33 28.1778 179.33 28.1778 180.738 28.1778Z" fill="#003366"/>
<path d="M70.1575 28.5455H50.1291C49.987 26.8883 49.6083 25.3849 48.9927 24.0355C48.4009 22.6861 47.5723 21.526 46.5069 20.5554C45.4653 19.5611 44.1987 18.8035 42.7072 18.2827C41.2157 17.7382 39.523 17.4659 37.6291 17.4659C34.3147 17.4659 31.5093 18.2708 29.2129 19.8807C26.9402 21.4905 25.2119 23.7988 24.0282 26.8054C22.8682 29.812 22.2882 33.4223 22.2882 37.6364C22.2882 42.0871 22.88 45.8158 24.0637 48.8224C25.2711 51.8054 27.0112 54.0545 29.2839 55.5696C31.5566 57.0611 34.291 57.8068 37.487 57.8068C39.31 57.8068 40.9435 57.5819 42.3876 57.1321C43.8317 56.6586 45.0865 55.9839 46.1518 55.108C47.2172 54.232 48.0813 53.1785 48.7441 51.9474C49.4307 50.6927 49.8923 49.2841 50.1291 47.7216L70.1575 47.8636C69.9208 50.9413 69.0566 54.0781 67.5652 57.2741C66.0737 60.4465 63.9548 63.3821 61.2086 66.081C58.4861 68.7562 55.1125 70.9105 51.0879 72.544C47.0633 74.1776 42.3876 74.9943 37.0609 74.9943C30.3848 74.9943 24.3952 73.562 19.0922 70.6974C13.8128 67.8329 9.6343 63.6188 6.55665 58.0554C3.50267 52.492 1.97568 45.6856 1.97568 37.6364C1.97568 29.5398 3.53818 22.7216 6.66318 17.1818C9.78818 11.6184 14.0022 7.4162 19.3052 4.57529C24.6083 1.71071 30.5268 0.278412 37.0609 0.278412C41.6537 0.278412 45.8796 0.905779 49.7385 2.16052C53.5974 3.41525 56.9828 5.25001 59.8947 7.66478C62.8066 10.0559 65.1504 13.0033 66.926 16.5071C68.7015 20.0109 69.7787 24.0237 70.1575 28.5455Z" fill="#003366"/>
</svg>
